<?xml version="1.0" encoding="utf-8"?>
<!-- Generator: Adobe Illustrator 24.0.0, SVG Export Plug-In . SVG Version: 6.00 Build 0)  -->
<svg version="1.1" id="Layer_1" xmlns="http://www.w3.org/2000/svg" xmlns:xlink="http://www.w3.org/1999/xlink" x="0px" y="0px"
	 viewBox="0 0 210 55" style="enable-background:new 0 0 210 55;" xml:space="preserve">
<style type="text/css">
	.st0{fill:none;stroke:#E56C96;stroke-miterlimit:10;}
	.st1{fill-rule:evenodd;clip-rule:evenodd;fill:#6957D0;}
	.st2{fill-rule:evenodd;clip-rule:evenodd;fill:#E56C96;}
</style>
<path id="XMLID_252_" class="st0" d="M46.4,22.6c0,11.3-9.2,20.5-20.5,20.5S5.4,33.9,5.4,22.6S14.6,2.1,25.9,2.1
	S46.4,11.3,46.4,22.6L46.4,22.6z"/>
<path id="XMLID_251_" class="st1" d="M74.8,26.9c0,1.7-0.3,3.2-0.8,4.4c-0.5,1.2-1.5,1.8-3.2,1.8s-2.9-0.7-3.4-2.3
	c-0.5-1.5-0.7-3.7-0.7-6.4c0-2.6,0.2-4.9,0.7-6.8c0.4-1.9,1.6-2.9,3.4-2.9c1.7,0,2.8,0.5,3.3,1.4c0.6,0.9,0.8,2.2,0.8,3.6h2.3
	c0-2.7-0.6-4.6-1.7-5.7c-1.2-1.1-2.7-1.6-4.5-1.6c-2.2,0-3.8,0.6-4.8,1.8c-1.1,1.2-1.7,2.7-1.9,4.3c-0.2,1.6-0.4,3.6-0.4,5.9
	c0,3.6,0.5,6.3,1.4,8.2c1,1.9,2.9,2.8,5.7,2.8c2.3,0,3.8-0.8,4.8-2.4s1.4-3.7,1.4-6.2L74.8,26.9L74.8,26.9z"/>
<path id="XMLID_248_" class="st1" d="M90.6,20.4c-0.9-1.5-2.4-2.2-4.4-2.2c-2.3,0-3.8,0.8-4.7,2.5c-0.9,1.6-1.3,3.7-1.3,6.3
	c0,2.5,0.4,4.6,1.3,6.3c0.8,1.6,2.4,2.5,4.7,2.5c2.1,0,3.5-0.8,4.4-2.4s1.3-3.8,1.3-6.5C92,24,91.5,21.9,90.6,20.4L90.6,20.4z
	 M88.8,31.4c-0.4,1.3-1.3,2-2.6,2c-1.4,0-2.4-0.6-2.8-1.8c-0.4-1.2-0.6-2.8-0.6-4.8c0-1.9,0.2-3.5,0.6-4.7s1.2-1.8,2.7-1.8
	c1.4,0,2.4,0.6,2.8,1.9c0.4,1.2,0.6,2.8,0.6,4.8C89.5,28.7,89.3,30.1,88.8,31.4L88.8,31.4z"/>
<path id="XMLID_247_" class="st1" d="M106.2,22.6c0-1.6-0.4-2.7-1.1-3.4c-0.7-0.7-1.8-1-3.3-1c-0.8,0-1.6,0.2-2.3,0.6
	c-0.7,0.4-1.1,0.9-1.2,1.4l-0.2-1.6h-2.5v16.3h2.5V23.6c0-1.1,0.3-2,0.9-2.6s1.4-0.9,2.3-0.9s1.5,0.3,1.8,1c0.3,0.6,0.5,1.5,0.5,2.7
	v11h2.5L106.2,22.6L106.2,22.6z"/>
<path id="XMLID_246_" class="st1" d="M117.7,29.2c0,1.3-0.2,2.4-0.6,3.1c-0.4,0.7-1.1,1.1-2,1.1c-1.4,0-2.3-0.5-2.7-1.6
	s-0.6-2.6-0.6-4.6v-0.9c0-1.6,0.2-3,0.6-4.2c0.4-1.2,1.3-1.8,2.6-1.8c0.9,0,1.5,0.3,1.9,1s0.6,1.5,0.6,2.5h2.3c0-1.5-0.5-2.9-1.4-4
	s-2.1-1.7-3.4-1.7c-2.3,0-3.8,0.8-4.6,2.5s-1.2,3.9-1.2,6.7c0,2.7,0.4,4.7,1.3,6.1c0.8,1.4,2.3,2.2,4.5,2.2c1.9,0,3.2-0.7,3.9-2
	s1-2.8,1-4.3L117.7,29.2L117.7,29.2z"/>
<path id="XMLID_243_" class="st1" d="M131.9,20.6c-0.6-1.5-2-2.3-4.3-2.3c-1.9,0-3.3,0.8-4.1,2.6c-0.7,1.7-1.1,3.7-1.1,6
	c0,3.1,0.5,5.3,1.4,6.6c0.9,1.3,2.2,2,3.8,2s2.9-0.6,3.7-1.6c0.8-1.1,1.2-2.5,1.2-4.2h-2.2c0,1.1-0.2,2-0.6,2.8
	c-0.4,0.8-1.1,1.1-2.1,1.1c-1.2,0-2-0.5-2.4-1.5s-0.6-2.2-0.6-3.8v-1.1h7.9C132.7,24.3,132.4,22.1,131.9,20.6L131.9,20.6z
	 M124.9,25.2c0-1.4,0.2-2.6,0.5-3.5s1.1-1.4,2.3-1.4s1.9,0.4,2.2,1.3s0.4,2.1,0.4,3.6H124.9L124.9,25.2z"/>
<path id="XMLID_240_" class="st1" d="M146,20.7c-0.8-1.5-2.1-2.2-3.8-2.2c-0.8,0-1.6,0.2-2.2,0.6c-0.7,0.3-1.2,0.9-1.6,1.7v-2.1
	h-2.1v22.1h2.3v-7.1c0.5,0.7,1,1.2,1.5,1.5c0.4,0.3,1.1,0.5,2,0.5c1.8,0,3.1-0.8,4-2.4c0.8-1.5,1.3-3.9,1.3-7.1
	C147.2,24,146.8,22.1,146,20.7L146,20.7z M144,31.6c-0.4,1.4-1.2,2-2.3,2c-1.3,0-2.2-0.6-2.6-1.9c-0.4-1.2-0.6-2.8-0.6-4.6
	c0-1.9,0.2-3.6,0.6-4.9c0.4-1.3,1.3-2,2.6-2c1.2,0,2,0.7,2.4,2.2s0.6,3,0.6,4.7C144.7,28.8,144.5,30.2,144,31.6L144,31.6z"/>
<path id="XMLID_239_" class="st1" d="M156.5,18.6H154v-4.1h-2.5v4.1h-2.3v2.1h2.3v11.8c0,1.1,0.2,1.8,0.5,2.1c0.3,0.3,1,0.4,2,0.4
	h2.3v-2.1H155c-0.4,0-0.7-0.1-0.8-0.2S154,32.4,154,32V20.7h2.5V18.6L156.5,18.6z"/>
<path id="XMLID_236_" class="st1" d="M161.3,12.9H159v3h2.3V12.9z M161.3,18.7H159V35h2.3V18.7z"/>
<path id="XMLID_233_" class="st1" d="M175.1,20.4c-0.9-1.5-2.4-2.2-4.4-2.2c-2.3,0-3.9,0.8-4.7,2.5c-0.8,1.6-1.3,3.7-1.3,6.3
	c0,2.5,0.4,4.6,1.3,6.3s2.4,2.5,4.7,2.5c2,0,3.5-0.8,4.4-2.4s1.3-3.8,1.3-6.5C176.5,24,176,21.9,175.1,20.4L175.1,20.4z M173.3,31.4
	c-0.4,1.3-1.3,2-2.6,2c-1.4,0-2.4-0.6-2.8-1.8c-0.4-1.2-0.7-2.8-0.7-4.8c0-1.9,0.2-3.5,0.6-4.7c0.4-1.2,1.3-1.8,2.7-1.8
	s2.4,0.6,2.8,1.9c0.4,1.2,0.7,2.8,0.7,4.8C173.9,28.7,173.7,30.1,173.3,31.4L173.3,31.4z"/>
<path id="XMLID_232_" class="st1" d="M190.7,22.6c0-1.6-0.3-2.7-1.1-3.4c-0.7-0.7-1.8-1-3.3-1c-0.8,0-1.6,0.2-2.3,0.6
	s-1.1,0.9-1.2,1.4l-0.2-1.6h-2.5v16.3h2.5V23.6c0-1.1,0.3-2,0.9-2.6c0.6-0.6,1.4-0.9,2.3-0.9c0.9,0,1.5,0.3,1.8,1
	c0.3,0.6,0.5,1.5,0.5,2.7v11h2.5L190.7,22.6L190.7,22.6z"/>
<path id="XMLID_231_" class="st1" d="M203.4,27.9c-0.6-0.7-1.6-1.3-3.1-1.9s-2.6-1-3.2-1.3c-0.6-0.3-0.9-1-0.9-2.1
	c0-0.7,0.2-1.3,0.6-1.7c0.4-0.4,1.1-0.6,1.9-0.6c0.9,0,1.5,0.2,1.8,0.7c0.3,0.4,0.6,1.2,0.7,2.3h2.3c0-1.5-0.5-2.8-1.4-3.7
	c-1-0.9-2.1-1.3-3.4-1.3c-1.6,0-2.8,0.3-3.6,1.1c-0.8,0.7-1.3,1.7-1.5,3.1v0.3c0,1.1,0.4,2,1.1,2.9c0.7,0.8,1.8,1.5,3.1,2
	s2.3,0.9,3,1.2c0.7,0.3,1.1,1,1.1,2.1c0,0.7-0.3,1.4-0.8,2c-0.6,0.5-1.4,0.8-2.4,0.8c-1.1,0-1.7-0.3-2-0.9c-0.3-0.5-0.5-1.4-0.5-2.6
	h-2.3c0,1.5,0.4,2.8,1,3.8c0.7,1.1,2.1,1.7,4.1,1.7c1.6,0,2.9-0.4,3.9-1.3c0.9-0.8,1.4-2.1,1.4-3.8C204.3,29.4,204,28.5,203.4,27.9
	L203.4,27.9z"/>
<path id="XMLID_228_" class="st2" d="M119,46.4c-0.2-0.5-0.7-0.8-1.5-0.8c-0.7,0-1.1,0.3-1.4,0.9c-0.3,0.6-0.4,1.3-0.4,2
	c0,1,0.2,1.8,0.5,2.3c0.3,0.4,0.7,0.7,1.3,0.7s1-0.2,1.2-0.6c0.3-0.4,0.4-0.8,0.4-1.4h-0.7c0,0.4-0.1,0.7-0.2,0.9
	c-0.1,0.3-0.4,0.4-0.7,0.4c-0.4,0-0.7-0.2-0.8-0.5s-0.2-0.8-0.2-1.3v-0.4h2.7C119.2,47.7,119.1,46.9,119,46.4L119,46.4z M116.6,48
	c0-0.5,0.1-0.9,0.2-1.2c0.1-0.3,0.4-0.5,0.8-0.5c0.4,0,0.7,0.2,0.8,0.5s0.2,0.7,0.2,1.2H116.6L116.6,48z"/>
<path id="XMLID_227_" class="st2" d="M121.3,43.9h-1V45h0.5c0,0.2,0,0.4-0.1,0.6c0,0.2-0.2,0.3-0.4,0.3v0.5c0.3-0.1,0.5-0.2,0.7-0.5
	c0.2-0.2,0.3-0.6,0.3-1.1V43.9z"/>
<polygon id="XMLID_226_" class="st2" points="129.7,43.9 125,43.9 125,44.7 127,44.7 127,51.3 127.8,51.3 127.8,44.7 129.7,44.7 "/>
<path id="XMLID_223_" class="st2" d="M133.6,46.4c-0.2-0.5-0.7-0.8-1.5-0.8c-0.7,0-1.1,0.3-1.4,0.9c-0.2,0.6-0.4,1.3-0.4,2
	c0,1,0.2,1.8,0.5,2.3c0.3,0.4,0.7,0.7,1.3,0.7s1-0.2,1.2-0.6c0.3-0.4,0.4-0.8,0.4-1.4H133c0,0.4-0.1,0.7-0.2,0.9
	c-0.2,0.3-0.4,0.4-0.7,0.4c-0.4,0-0.7-0.2-0.8-0.5s-0.2-0.8-0.2-1.3v-0.4h2.7C133.9,47.7,133.8,46.9,133.6,46.4L133.6,46.4z
	 M131.2,48c0-0.5,0.1-0.9,0.2-1.2c0.1-0.3,0.4-0.5,0.8-0.5c0.4,0,0.6,0.2,0.7,0.5c0.1,0.3,0.2,0.7,0.2,1.2H131.2L131.2,48z"/>
<path id="XMLID_222_" class="st2" d="M137.6,49.4c0,0.4-0.1,0.8-0.2,1c-0.2,0.2-0.4,0.4-0.7,0.4c-0.5,0-0.8-0.2-0.9-0.6
	c-0.1-0.4-0.2-0.9-0.2-1.5v-0.3c0-0.6,0.1-1,0.2-1.4c0.2-0.4,0.4-0.6,0.9-0.6c0.3,0,0.5,0.1,0.7,0.3c0.1,0.2,0.2,0.5,0.2,0.8h0.8
	c0-0.5-0.2-1-0.5-1.4s-0.7-0.6-1.2-0.6c-0.8,0-1.3,0.3-1.5,0.9c-0.3,0.6-0.4,1.3-0.4,2.3c0,0.9,0.2,1.6,0.4,2.1
	c0.3,0.5,0.8,0.7,1.5,0.7s1.1-0.2,1.3-0.7c0.2-0.4,0.3-0.9,0.3-1.4L137.6,49.4L137.6,49.4z"/>
<path id="XMLID_221_" class="st2" d="M143,47c0-0.5-0.1-0.8-0.4-1.1c-0.2-0.2-0.6-0.3-1-0.3c-0.3,0-0.5,0.1-0.7,0.2
	s-0.4,0.3-0.6,0.6v-2.5h-0.8v7.5h0.8v-3.7c0-0.2,0-0.4,0.1-0.5s0.2-0.3,0.3-0.4s0.3-0.2,0.4-0.3c0.1-0.1,0.2-0.1,0.4-0.1
	c0.3,0,0.5,0.1,0.7,0.2c0.1,0.2,0.2,0.4,0.2,0.7v4.1h0.8V47H143z"/>
<path id="XMLID_220_" class="st2" d="M148.1,47.1c0-0.5-0.1-0.9-0.4-1.1c-0.2-0.2-0.6-0.3-1.1-0.3c-0.3,0-0.6,0.1-0.8,0.2
	c-0.2,0.2-0.4,0.3-0.4,0.5v-0.5h-0.9v5.6h0.9v-4c0-0.4,0.1-0.7,0.3-0.9c0.2-0.2,0.5-0.3,0.8-0.3s0.5,0.1,0.6,0.3
	c0.1,0.2,0.2,0.5,0.2,0.9v3.8h0.9L148.1,47.1L148.1,47.1z"/>
<path id="XMLID_217_" class="st2" d="M150.2,43.8h-0.8v1h0.8V43.8z M150.2,45.7h-0.8v5.6h0.8V45.7z"/>
<path id="XMLID_214_" class="st2" d="M155.1,45.7h-0.8v0.6c-0.1-0.2-0.3-0.4-0.5-0.5s-0.4-0.2-0.7-0.2c-0.7,0-1.1,0.3-1.3,0.9
	s-0.4,1.3-0.4,2.1c0,0.7,0.1,1.4,0.4,2c0.2,0.6,0.7,0.9,1.3,0.9c0.3,0,0.5,0,0.7-0.1s0.4-0.3,0.6-0.6v2.4h0.8L155.1,45.7L155.1,45.7
	z M154.1,50.3c-0.2,0.4-0.4,0.6-0.8,0.6c-0.3,0-0.6-0.2-0.8-0.6s-0.2-1-0.2-1.8c0-0.6,0.1-1.1,0.2-1.5c0.1-0.4,0.4-0.7,0.8-0.7
	c0.4,0,0.7,0.2,0.8,0.7c0.1,0.4,0.2,0.9,0.2,1.5C154.3,49.2,154.2,49.9,154.1,50.3L154.1,50.3z"/>
<path id="XMLID_213_" class="st2" d="M160.2,45.7h-0.8v3.9c0,0.3-0.1,0.7-0.4,0.9c-0.3,0.2-0.6,0.4-0.8,0.4s-0.3-0.1-0.4-0.2
	c-0.1-0.1-0.2-0.3-0.2-0.6v-4.3h-0.8V50c0,1,0.5,1.5,1.3,1.5c0.2,0,0.5-0.1,0.7-0.2s0.4-0.4,0.6-0.7v0.7h0.8L160.2,45.7L160.2,45.7z
	"/>
<path id="XMLID_210_" class="st2" d="M164.6,46.4c-0.2-0.5-0.7-0.8-1.5-0.8c-0.7,0-1.1,0.3-1.4,0.9c-0.2,0.6-0.4,1.3-0.4,2
	c0,1,0.2,1.8,0.5,2.3c0.3,0.4,0.7,0.7,1.3,0.7s1-0.2,1.2-0.6c0.3-0.4,0.4-0.8,0.4-1.4H164c0,0.4-0.1,0.7-0.2,0.9
	c-0.1,0.3-0.4,0.4-0.7,0.4c-0.4,0-0.7-0.2-0.8-0.5s-0.2-0.8-0.2-1.3v-0.4h2.7C164.9,47.7,164.8,46.9,164.6,46.4L164.6,46.4z
	 M162.2,48c0-0.5,0.1-0.9,0.2-1.2c0.1-0.3,0.4-0.5,0.8-0.5c0.4,0,0.6,0.2,0.7,0.5c0.1,0.3,0.2,0.7,0.2,1.2H162.2L162.2,48z"/>
<path id="XMLID_209_" class="st2" d="M172.7,47.1c0-0.5-0.1-0.9-0.4-1.1c-0.2-0.2-0.6-0.3-1.1-0.3c-0.3,0-0.5,0.1-0.8,0.2
	c-0.2,0.2-0.4,0.3-0.4,0.5l-0.1-0.5H169v5.6h0.9v-4c0-0.4,0.1-0.7,0.3-0.9c0.2-0.2,0.5-0.3,0.8-0.3s0.5,0.1,0.6,0.3
	c0.1,0.2,0.2,0.5,0.2,0.9v3.8h0.9V47.1L172.7,47.1z"/>
<path id="XMLID_208_" class="st2" d="M175,43.9h-1V45h0.5c0,0.2,0,0.4-0.1,0.6s-0.2,0.3-0.4,0.3v0.5c0.3-0.1,0.5-0.2,0.7-0.5
	c0.2-0.2,0.3-0.6,0.3-1.1V43.9z"/>
<path id="XMLID_205_" class="st2" d="M183.9,45.6c-0.1-0.5-0.4-0.9-0.7-1.3s-0.9-0.5-1.6-0.5h-2.2v7.5h2c1.1,0,1.9-0.4,2.2-1.2
	c0.3-0.8,0.5-1.7,0.5-2.8C184.1,46.7,184,46.1,183.9,45.6L183.9,45.6z M183.2,48c0,0.7-0.1,1.3-0.3,1.8s-0.6,0.8-1.3,0.8h-1.3v-5.9
	h1.1c0.8,0,1.3,0.2,1.5,0.7s0.3,1.2,0.3,2.3L183.2,48L183.2,48z"/>
<path id="XMLID_202_" class="st2" d="M188.3,46.4c-0.2-0.5-0.7-0.8-1.5-0.8c-0.7,0-1.1,0.3-1.4,0.9c-0.2,0.6-0.4,1.3-0.4,2
	c0,1,0.2,1.8,0.5,2.3c0.3,0.4,0.7,0.7,1.3,0.7s1-0.2,1.3-0.6s0.4-0.8,0.4-1.4h-0.7c0,0.4-0.1,0.7-0.2,0.9c-0.2,0.3-0.4,0.4-0.7,0.4
	c-0.4,0-0.7-0.2-0.8-0.5s-0.2-0.8-0.2-1.3v-0.4h2.7C188.6,47.7,188.5,46.9,188.3,46.4L188.3,46.4z M185.9,48c0-0.5,0.1-0.9,0.2-1.2
	c0.1-0.3,0.4-0.5,0.8-0.5c0.4,0,0.7,0.2,0.7,0.5c0.1,0.3,0.2,0.7,0.2,1.2H185.9L185.9,48z"/>
<path id="XMLID_201_" class="st2" d="M192.7,48.9c-0.2-0.2-0.6-0.4-1.1-0.6s-0.9-0.3-1.1-0.4c-0.2-0.1-0.3-0.3-0.3-0.7
	c0-0.2,0.1-0.4,0.2-0.6c0.1-0.1,0.4-0.2,0.7-0.2s0.5,0.1,0.6,0.2c0.1,0.2,0.2,0.4,0.2,0.8h0.8c0-0.5-0.2-0.9-0.5-1.2
	c-0.3-0.3-0.7-0.5-1.2-0.5s-1,0.1-1.2,0.3c-0.3,0.2-0.5,0.6-0.5,1.1v0.1c0,0.4,0.1,0.7,0.4,1c0.2,0.3,0.6,0.5,1.1,0.7
	c0.4,0.2,0.8,0.3,1,0.4s0.4,0.3,0.4,0.7c0,0.3-0.1,0.5-0.3,0.7s-0.5,0.3-0.8,0.3c-0.4,0-0.6-0.1-0.7-0.3c-0.1-0.2-0.2-0.5-0.2-0.9
	h-0.8c0,0.5,0.1,0.9,0.3,1.3s0.7,0.6,1.4,0.6c0.6,0,1-0.2,1.3-0.4c0.3-0.3,0.5-0.7,0.5-1.3C193,49.4,192.9,49.1,192.7,48.9
	L192.7,48.9z"/>
<path id="XMLID_198_" class="st2" d="M194.9,43.8h-0.8v1h0.8V43.8z M194.9,45.7h-0.8v5.6h0.8V45.7z"/>
<path id="XMLID_195_" class="st2" d="M200,45.7h-0.9v0.6c0-0.2-0.2-0.4-0.4-0.5c-0.2-0.2-0.5-0.2-0.9-0.2c-0.7,0-1.2,0.3-1.4,1
	s-0.3,1.3-0.3,2.1c0,0.7,0.1,1.4,0.4,2c0.2,0.6,0.7,0.9,1.4,0.9c0.3,0,0.5-0.1,0.7-0.2s0.4-0.3,0.5-0.5c0,0.4-0.1,0.8-0.2,1.2
	c-0.1,0.4-0.4,0.5-0.9,0.5c-0.3,0-0.5-0.1-0.6-0.2s-0.2-0.3-0.3-0.5h-0.8c0,0.4,0.2,0.7,0.5,1s0.7,0.4,1.2,0.4
	c0.9,0,1.4-0.3,1.6-0.9c0.2-0.6,0.3-1.4,0.3-2.4v-4.3H200z M198.9,50.2c-0.1,0.4-0.4,0.7-0.9,0.7c-0.3,0-0.6-0.2-0.8-0.7
	s-0.3-1-0.3-1.5c0-0.6,0.1-1.1,0.3-1.6c0.2-0.4,0.4-0.7,0.8-0.7c0.4,0,0.6,0.1,0.8,0.4s0.3,0.9,0.3,1.8
	C199.1,49.2,199,49.7,198.9,50.2L198.9,50.2z"/>
<path id="XMLID_194_" class="st2" d="M205,47.1c0-0.5-0.1-0.9-0.4-1.1c-0.2-0.2-0.6-0.3-1.1-0.3c-0.3,0-0.5,0.1-0.8,0.2
	c-0.2,0.2-0.4,0.3-0.4,0.5v-0.5h-0.9v5.6h0.9v-4c0-0.4,0.1-0.7,0.3-0.9c0.2-0.2,0.5-0.3,0.8-0.3s0.5,0.1,0.6,0.3
	c0.1,0.2,0.2,0.5,0.2,0.9v3.8h0.9L205,47.1L205,47.1z"/>
<line id="XMLID_193_" class="st0" x1="54.7" y1="7.5" x2="54.7" y2="40.5"/>
<path id="XMLID_120_" class="st1" d="M30.1,20c0-2.2-0.2-4-0.7-5.4s-1.6-2.1-3.4-2.1s-3,0.7-3.5,2.1s-0.8,3.2-0.8,5.3h8.4V20z
	 M33.7,22.9h-12v1.7c0,2.4,0.3,4.3,0.8,5.8c0.6,1.5,1.7,2.2,3.6,2.2c1.5,0,2.6-0.6,3.2-1.7s0.9-2.5,0.9-4.2h3.3
	c0,2.6-0.6,4.7-1.9,6.4c-1.2,1.6-3.1,2.5-5.6,2.5s-4.5-1-5.9-3s-2.1-5.3-2.1-10c0-3.4,0.6-6.5,1.7-9c1.1-2.6,3.2-3.9,6.2-3.9
	c3.5,0,5.6,1.1,6.5,3.5C33.3,15.4,33.7,18.7,33.7,22.9L33.7,22.9z"/>
</svg>
