<?xml version="1.0" encoding="utf-8"?>
<!-- Generator: Adobe Illustrator 25.4.1, SVG Export Plug-In . SVG Version: 6.00 Build 0)  -->
<svg version="1.1" id="Layer_1" xmlns="http://www.w3.org/2000/svg" xmlns:xlink="http://www.w3.org/1999/xlink" x="0px" y="0px"
	 viewBox="0 0 75 75" style="enable-background:new 0 0 75 75;" xml:space="preserve">
<style type="text/css">
	.st0{fill:none;stroke:#E56C96;stroke-width:2;stroke-miterlimit:10;}
	.st1{fill-rule:evenodd;clip-rule:evenodd;fill:#6957D0;}
</style>
<path id="XMLID_252_" class="st0" d="M71.6,37.9c0,18.8-15.3,34-34,34s-34-15.3-34-34s15.3-34,34-34S71.6,19.1,71.6,37.9L71.6,37.9z
	"/>
<path id="XMLID_120_" class="st1" d="M44.6,33.6c0-3.7-0.3-6.6-1.2-8.9c-0.8-2.3-2.7-3.5-5.7-3.5s-5,1.2-5.8,3.5
	c-0.8,2.3-1.3,5.3-1.3,8.8h13.9L44.6,33.6L44.6,33.6z M50.6,38.4H30.6v2.8c0,4,0.5,7.1,1.3,9.6c1,2.5,2.8,3.7,6,3.7
	c2.5,0,4.3-1,5.3-2.8c1-1.8,1.5-4.2,1.5-7h5.5c0,4.3-1,7.8-3.1,10.6c-2,2.6-5.2,4.2-9.3,4.2s-7.5-1.6-9.8-5s-3.5-8.8-3.5-16.6
	c0-5.7,1-10.8,2.8-14.9c1.8-4.3,5.3-6.5,10.3-6.5c5.8,0,9.3,1.8,10.8,5.8C49.9,26,50.6,31.4,50.6,38.4L50.6,38.4z"/>
</svg>
